<svg width="151" height="85" viewBox="0 0 151 85" fill="none" xmlns="http://www.w3.org/2000/svg">
	<path d="M10.9773 56.4151V71.347H2.64205V36.4379H10.7045V49.972H10.9943C11.5852 48.3583 12.5511 47.097 13.892 46.1879C15.2443 45.2788 16.8977 44.8242 18.8523 44.8242C20.6932 44.8242 22.2955 45.2333 23.6591 46.0515C25.0227 46.8583 26.0795 48.0004 26.8295 49.4776C27.5909 50.9549 27.9659 52.6822 27.9545 54.6595V71.347H19.6193V56.2958C19.6307 54.8413 19.267 53.7049 18.5284 52.8867C17.7898 52.0685 16.75 51.6595 15.4091 51.6595C14.5341 51.6595 13.7614 51.8526 13.0909 52.239C12.4318 52.614 11.9148 53.1538 11.5398 53.8583C11.1761 54.5629 10.9886 55.4151 10.9773 56.4151ZM40.5384 71.7901C38.8679 71.7901 37.3849 71.5117 36.0895 70.9549C34.8054 70.3867 33.7884 69.5345 33.0384 68.3981C32.2997 67.2504 31.9304 65.8129 31.9304 64.0856C31.9304 62.631 32.1861 61.4038 32.6974 60.4038C33.2088 59.4038 33.9134 58.5913 34.8111 57.9663C35.7088 57.3413 36.7429 56.8697 37.9134 56.5515C39.0838 56.222 40.3338 56.0004 41.6634 55.8867C43.152 55.7504 44.3509 55.6083 45.2599 55.4606C46.169 55.3015 46.8281 55.0799 47.2372 54.7958C47.6577 54.5004 47.8679 54.0856 47.8679 53.5515V53.4663C47.8679 52.5913 47.5668 51.9151 46.9645 51.4379C46.3622 50.9606 45.5497 50.722 44.527 50.722C43.4247 50.722 42.5384 50.9606 41.8679 51.4379C41.1974 51.9151 40.7713 52.5742 40.5895 53.4151L32.902 53.1424C33.1293 51.5515 33.7145 50.131 34.6577 48.881C35.6122 47.6197 36.919 46.631 38.5781 45.9151C40.2486 45.1879 42.2543 44.8242 44.5952 44.8242C46.2656 44.8242 47.8054 45.0231 49.2145 45.4208C50.6236 45.8072 51.8509 46.3754 52.8963 47.1254C53.9418 47.864 54.7486 48.7731 55.3168 49.8526C55.8963 50.9322 56.1861 52.1651 56.1861 53.5515V71.347H48.3452V67.6992H48.1406C47.6747 68.5856 47.0781 69.3356 46.3509 69.9492C45.6349 70.5629 44.7884 71.0231 43.8111 71.3299C42.8452 71.6367 41.7543 71.7901 40.5384 71.7901ZM43.1122 66.3356C44.0099 66.3356 44.8168 66.1538 45.5327 65.7901C46.2599 65.4265 46.8395 64.9265 47.2713 64.2901C47.7031 63.6424 47.919 62.8924 47.919 62.0401V59.5515C47.6804 59.6765 47.3906 59.7901 47.0497 59.8924C46.7202 59.9947 46.3565 60.0913 45.9588 60.1822C45.5611 60.2731 45.152 60.3526 44.7315 60.4208C44.3111 60.489 43.9077 60.5515 43.5213 60.6083C42.7372 60.7333 42.0668 60.9265 41.5099 61.1879C40.9645 61.4492 40.544 61.7901 40.2486 62.2106C39.9645 62.6197 39.8224 63.1083 39.8224 63.6765C39.8224 64.5401 40.1293 65.1992 40.7429 65.6538C41.3679 66.1083 42.1577 66.3356 43.1122 66.3356ZM61.2827 71.347V36.4379H69.6179V49.6481H69.7884C70.1293 48.8526 70.6122 48.0856 71.2372 47.347C71.8736 46.6083 72.6804 46.006 73.6577 45.5401C74.6463 45.0629 75.8281 44.8242 77.2031 44.8242C79.0213 44.8242 80.7202 45.3015 82.2997 46.256C83.8906 47.2106 85.1747 48.6822 86.152 50.6708C87.1293 52.6595 87.6179 55.1935 87.6179 58.2731C87.6179 61.239 87.1463 63.722 86.2031 65.722C85.2713 67.722 84.0099 69.222 82.419 70.222C80.8395 71.222 79.0838 71.722 77.152 71.722C75.8338 71.722 74.6918 71.506 73.7259 71.0742C72.7599 70.6424 71.9474 70.0742 71.2884 69.3697C70.6406 68.6651 70.1406 67.9095 69.7884 67.1026H69.5327V71.347H61.2827ZM69.4474 58.256C69.4474 59.6651 69.6349 60.8924 70.0099 61.9379C70.3963 62.9833 70.9474 63.7958 71.6634 64.3754C72.3906 64.9435 73.2599 65.2276 74.2713 65.2276C75.294 65.2276 76.1634 64.9435 76.8793 64.3754C77.5952 63.7958 78.1349 62.9833 78.4986 61.9379C78.8736 60.8924 79.0611 59.6651 79.0611 58.256C79.0611 56.847 78.8736 55.6254 78.4986 54.5913C78.1349 53.5572 77.5952 52.756 76.8793 52.1879C76.1747 51.6197 75.3054 51.3356 74.2713 51.3356C73.2486 51.3356 72.3793 51.614 71.6634 52.1708C70.9474 52.7276 70.3963 53.5231 70.0099 54.5572C69.6349 55.5913 69.4474 56.8242 69.4474 58.256ZM91.9858 71.347V45.1651H100.321V71.347H91.9858ZM96.1619 42.114C94.9915 42.114 93.9858 41.7276 93.1449 40.9549C92.304 40.1708 91.8835 39.2276 91.8835 38.1254C91.8835 37.0345 92.304 36.1026 93.1449 35.3299C93.9858 34.5458 94.9915 34.1538 96.1619 34.1538C97.3438 34.1538 98.3494 34.5458 99.179 35.3299C100.02 36.1026 100.44 37.0345 100.44 38.1254C100.44 39.2276 100.02 40.1708 99.179 40.9549C98.3494 41.7276 97.3438 42.114 96.1619 42.114ZM120.405 45.1651V51.3015H103.888V45.1651H120.405ZM107.348 38.8924H115.683V63.114C115.683 63.6254 115.763 64.0401 115.922 64.3583C116.092 64.6651 116.337 64.8867 116.655 65.0231C116.973 65.1481 117.354 65.2106 117.797 65.2106C118.115 65.2106 118.45 65.1822 118.803 65.1254C119.166 65.0572 119.439 65.0004 119.621 64.9549L120.882 70.972C120.484 71.0856 119.922 71.2276 119.195 71.3981C118.479 71.5685 117.621 71.6765 116.621 71.722C114.666 71.8129 112.99 71.5856 111.592 71.0401C110.206 70.4833 109.143 69.6197 108.405 68.4492C107.678 67.2788 107.325 65.8072 107.348 64.0345V38.8924ZM147.188 53.1595L139.534 53.364C139.455 52.8185 139.239 52.3356 138.886 51.9151C138.534 51.4833 138.074 51.1481 137.506 50.9095C136.949 50.6595 136.301 50.5345 135.562 50.5345C134.597 50.5345 133.773 50.7276 133.091 51.114C132.42 51.5004 132.091 52.0231 132.102 52.6822C132.091 53.1935 132.295 53.6367 132.716 54.0117C133.148 54.3867 133.915 54.6879 135.017 54.9151L140.062 55.8697C142.676 56.3697 144.619 57.1992 145.892 58.3583C147.176 59.5174 147.824 61.0515 147.835 62.9606C147.824 64.756 147.29 66.3185 146.233 67.6481C145.188 68.9776 143.756 70.0117 141.938 70.7504C140.119 71.4776 138.04 71.8413 135.699 71.8413C131.96 71.8413 129.011 71.0742 126.852 69.5401C124.705 67.9947 123.477 65.9265 123.17 63.3356L131.403 63.131C131.585 64.0856 132.057 64.8129 132.818 65.3129C133.58 65.8129 134.551 66.0629 135.733 66.0629C136.801 66.0629 137.67 65.864 138.341 65.4663C139.011 65.0685 139.352 64.5401 139.364 63.881C139.352 63.2901 139.091 62.8185 138.58 62.4663C138.068 62.1026 137.267 61.8185 136.176 61.614L131.608 60.7447C128.983 60.2674 127.028 59.3867 125.744 58.1026C124.46 56.8072 123.824 55.1595 123.835 53.1595C123.824 51.4095 124.29 49.9151 125.233 48.6765C126.176 47.4265 127.517 46.472 129.256 45.8129C130.994 45.1538 133.045 44.8242 135.409 44.8242C138.955 44.8242 141.75 45.5685 143.795 47.0572C145.841 48.5345 146.972 50.5685 147.188 53.1595Z" fill="white" />
	<rect x="0.5" y="0.846954" width="15" height="15" rx="3.5" fill="#18181B" stroke="#27272A" />
	<rect x="20.5" y="0.846954" width="15" height="15" rx="3.5" fill="#4C1D95" stroke="#6D28D9" />
	<rect x="40.5" y="0.846954" width="15" height="15" rx="3.5" fill="#5B21B6" stroke="#7C3AED" />
	<rect x="60.5" y="0.846954" width="15" height="15" rx="3.5" fill="#6D28D9" stroke="#8B5CF6" />
	<rect x="80.5" y="0.846954" width="15" height="15" rx="3.5" fill="#7C3AED" stroke="#A78BFA" />
	<rect x="100.5" y="0.846954" width="15" height="15" rx="3.5" fill="#8B5CF6" stroke="#C4B5FD" />
</svg>
